Coordinates
version=1
nRows=13
nColumns=30
inDegrees=yes

Units are S.I. units (second, meters, Newtons, ...)
Angles are in degrees.

endheader
time	floatyaw	floatroll	floatpitch	floatx	floaty	floatz	pro_sup_l	deviation_l	flexion_l	cmc_flexion_l	cmc_abduction_l	mp_flexion_l	ip_flexion_l	2mcp_flexion_l	2mcp_abduction_l	2pm_flexion_l	2md_flexion_l	3mcp_flexion_l	3mcp_abduction_l	3pm_flexion_l	3md_flexion_l	4mcp_flexion_l	4mcp_abduction_l	4pm_flexion_l	4md_flexion_l	5mcp_flexion_l	5mcp_abduction_l	5pm_flexion_l	5md_flexion_l
-0.495000	-3.856690	-4.835354	96.479781	-0.109146	-0.184188	-0.040534	86.930138	-0.069260	-3.247147	17.262020	2.145687	-21.726935	-34.317629	37.050606	9.939531	48.124402	34.743921	21.079667	4.802894	47.345626	33.437075	9.366310	-5.105764	62.116885	43.084830	1.746709	-8.527730	62.426446	43.333531
-0.485000	-3.856690	-4.835354	96.479781	-0.109171	-0.184174	-0.040558	86.920317	-0.048631	-3.246212	17.235387	2.115414	-21.727306	-34.313469	37.021400	9.938015	48.106200	34.736344	21.085485	4.800686	47.350991	33.433416	9.384329	-5.112331	62.098885	43.068928	1.729318	-8.513786	62.438695	43.330660
-0.475000	-3.856690	-4.835354	96.479781	-0.109198	-0.184164	-0.040576	86.902678	-0.034660	-3.246315	17.205392	2.102120	-21.724473	-34.306400	37.000814	9.927018	48.097257	34.730391	21.093578	4.801017	47.364946	33.429845	9.407217	-5.112135	62.082754	43.051061	1.721591	-8.504460	62.437595	43.321309
-0.465000	-3.856690	-4.835354	96.479781	-0.109226	-0.184160	-0.040588	86.878573	-0.027023	-3.250720	17.175352	2.098545	-21.720184	-34.297585	36.992481	9.905315	48.100172	34.726200	21.106579	4.802940	47.385979	33.424129	9.431199	-5.104233	62.070399	43.032592	1.718908	-8.495179	62.424884	43.306929
-0.455000	-3.856690	-4.835354	96.479781	-0.109254	-0.184164	-0.040595	86.852667	-0.022694	-3.260773	17.146947	2.094656	-21.716239	-34.288095	36.996079	9.873442	48.113689	34.722975	21.123712	4.806738	47.408420	33.413919	9.453111	-5.091892	62.062750	43.014855	1.714310	-8.480622	62.406092	43.291024
-0.445000	-3.856690	-4.835354	96.479781	-0.109283	-0.184172	-0.040598	86.831153	-0.017785	-3.274237	17.119754	2.082448	-21.714183	-34.278592	37.007379	9.833739	48.133124	34.719567	21.141553	4.813503	47.425459	33.398370	9.471374	-5.081068	62.058946	42.998589	1.700788	-8.456178	62.385264	43.276342
-0.435000	-3.856690	-4.835354	96.479781	-0.109313	-0.184176	-0.040600	86.818700	-0.010181	-3.285162	17.091726	2.059068	-21.714931	-34.269116	37.019363	9.789821	48.151885	34.715164	21.155421	4.824222	47.432459	33.379132	9.485663	-5.077282	62.056002	42.983703	1.674611	-8.420028	62.360652	43.262494
-0.425000	-3.856690	-4.835354	96.479781	-0.109344	-0.184166	-0.040599	86.816095	-0.001029	-3.286075	17.060332	2.027172	-21.718300	-34.258995	37.024495	9.745573	48.163619	34.709570	21.161301	4.838787	47.428863	33.360014	9.496436	-5.082742	62.049634	42.969520	1.637909	-8.374769	62.325400	43.246139
-0.415000	-3.856690	-4.835354	96.479781	-0.109372	-0.184138	-0.040594	86.820191	0.006062	-3.271784	17.023882	1.993334	-21.722818	-34.247115	37.017653	9.703916	48.164537	34.703096	21.158125	4.855368	47.418166	33.345514	9.505075	-5.095160	62.036296	42.955385	1.598874	-8.327240	62.273586	43.223887
-0.405000	-3.856690	-4.835354	96.479781	-0.109393	-0.184091	-0.040581	86.826149	0.007452	-3.242603	16.982527	1.965560	-21.726290	-34.232717	36.998360	9.665683	48.155173	34.696385	21.149329	4.870464	47.406408	33.338999	9.514236	-5.108762	62.015428	42.941265	1.569168	-8.286060	62.207391	43.195705
-0.395000	-3.856690	-4.835354	96.479781	-0.109400	-0.184030	-0.040557	86.830556	0.001730	-3.204706	16.938646	1.950299	-21.727142	-34.216435	36.970800	9.629091	48.140530	34.690442	21.142189	4.879797	47.399911	33.341378	9.527423	-5.116917	61.990325	42.927908	1.559338	-8.257552	62.139214	43.165918
-0.385000	-3.856690	-4.835354	96.479781	-0.109384	-0.183960	-0.040519	86.833666	-0.009660	-3.167229	16.896560	1.949428	-21.725742	-34.200800	36.941196	9.590186	48.128006	34.686669	21.144560	4.879812	47.402799	33.350671	9.547360	-5.115180	61.966514	42.916334	1.573902	-8.241741	62.085664	43.140616
-0.375000	-3.856690	-4.835354	96.479781	-0.109342	-0.183886	-0.040465	86.839600	-0.023463	-3.138000	16.861603	1.958762	-21.724627	-34.189579	36.913927	9.544385	48.123690	34.686560	21.160559	4.869090	47.415070	33.362523	9.573913	-5.103311	61.948093	42.906836	1.608372	-8.230633	62.056660	43.123213
